<mxfile host="app.diagrams.net" modified="2020-04-01T14:11:34.284Z" agent="5.0 (Windows NT 10.0; Win64; x64) AppleWebKit/537.36 (KHTML, like Gecko) Chrome/80.0.3987.149 Safari/537.36" etag="VHPsU41yAQfoth1gj4WN" version="12.9.6" type="github" pages="4">
  <diagram id="Ai0HZZat3uVSUmlKoc1S" name="les_1_task_1">
    <mxGraphModel dx="1056" dy="552" grid="1" gridSize="10" guides="1" tooltips="1" connect="1" arrows="1" fold="1" page="1" pageScale="1" pageWidth="827" pageHeight="1169" math="0" shadow="0">
      <root>
        <mxCell id="0" />
        <mxCell id="1" parent="0" />
        <mxCell id="HmodYSN6ZYd4rH5pP58v-6" style="edgeStyle=orthogonalEdgeStyle;rounded=0;orthogonalLoop=1;jettySize=auto;html=1;exitX=0.5;exitY=1;exitDx=0;exitDy=0;entryX=0.5;entryY=0;entryDx=0;entryDy=0;" parent="1" source="HmodYSN6ZYd4rH5pP58v-1" target="HmodYSN6ZYd4rH5pP58v-5" edge="1">
          <mxGeometry relative="1" as="geometry" />
        </mxCell>
        <mxCell id="HmodYSN6ZYd4rH5pP58v-1" value="Начало" style="ellipse;whiteSpace=wrap;html=1;" parent="1" vertex="1">
          <mxGeometry x="320" y="30" width="110" height="30" as="geometry" />
        </mxCell>
        <mxCell id="HmodYSN6ZYd4rH5pP58v-8" style="edgeStyle=orthogonalEdgeStyle;rounded=0;orthogonalLoop=1;jettySize=auto;html=1;exitX=0.5;exitY=1;exitDx=0;exitDy=0;entryX=0.5;entryY=0;entryDx=0;entryDy=0;" parent="1" source="HmodYSN6ZYd4rH5pP58v-5" target="HmodYSN6ZYd4rH5pP58v-7" edge="1">
          <mxGeometry relative="1" as="geometry" />
        </mxCell>
        <mxCell id="HmodYSN6ZYd4rH5pP58v-5" value="Введите номер &lt;br&gt;буквы в алфавите" style="shape=parallelogram;perimeter=parallelogramPerimeter;whiteSpace=wrap;html=1;" parent="1" vertex="1">
          <mxGeometry x="285" y="90" width="180" height="40" as="geometry" />
        </mxCell>
        <mxCell id="HmodYSN6ZYd4rH5pP58v-10" style="edgeStyle=orthogonalEdgeStyle;rounded=0;orthogonalLoop=1;jettySize=auto;html=1;exitX=0.5;exitY=1;exitDx=0;exitDy=0;entryX=0.5;entryY=0;entryDx=0;entryDy=0;" parent="1" source="HmodYSN6ZYd4rH5pP58v-7" target="HmodYSN6ZYd4rH5pP58v-9" edge="1">
          <mxGeometry relative="1" as="geometry" />
        </mxCell>
        <mxCell id="HmodYSN6ZYd4rH5pP58v-7" value="Ввод номера буквы &lt;br&gt;и присвоение&lt;br&gt;&amp;nbsp;переменной n" style="shape=parallelogram;perimeter=parallelogramPerimeter;whiteSpace=wrap;html=1;" parent="1" vertex="1">
          <mxGeometry x="277.5" y="150" width="195" height="60" as="geometry" />
        </mxCell>
        <mxCell id="HmodYSN6ZYd4rH5pP58v-16" style="edgeStyle=orthogonalEdgeStyle;rounded=0;orthogonalLoop=1;jettySize=auto;html=1;exitX=0.5;exitY=1;exitDx=0;exitDy=0;entryX=0.5;entryY=0;entryDx=0;entryDy=0;" parent="1" source="HmodYSN6ZYd4rH5pP58v-9" target="HmodYSN6ZYd4rH5pP58v-11" edge="1">
          <mxGeometry relative="1" as="geometry" />
        </mxCell>
        <mxCell id="HmodYSN6ZYd4rH5pP58v-9" value="Расчет смещения относительно 1-ой буквы - &#39;a&#39;:&lt;br&gt;n = ord(&#39;a&#39;) + n - 1" style="rounded=0;whiteSpace=wrap;html=1;" parent="1" vertex="1">
          <mxGeometry x="315" y="240" width="120" height="60" as="geometry" />
        </mxCell>
        <mxCell id="HmodYSN6ZYd4rH5pP58v-13" style="edgeStyle=orthogonalEdgeStyle;rounded=0;orthogonalLoop=1;jettySize=auto;html=1;exitX=0.5;exitY=1;exitDx=0;exitDy=0;entryX=0.5;entryY=0;entryDx=0;entryDy=0;" parent="1" source="HmodYSN6ZYd4rH5pP58v-11" target="HmodYSN6ZYd4rH5pP58v-12" edge="1">
          <mxGeometry relative="1" as="geometry" />
        </mxCell>
        <mxCell id="HmodYSN6ZYd4rH5pP58v-11" value="Получение буквы&amp;nbsp;" style="rounded=0;whiteSpace=wrap;html=1;" parent="1" vertex="1">
          <mxGeometry x="315" y="320" width="115" height="30" as="geometry" />
        </mxCell>
        <mxCell id="HmodYSN6ZYd4rH5pP58v-15" style="edgeStyle=orthogonalEdgeStyle;rounded=0;orthogonalLoop=1;jettySize=auto;html=1;exitX=0.5;exitY=1;exitDx=0;exitDy=0;entryX=0.5;entryY=0;entryDx=0;entryDy=0;" parent="1" source="HmodYSN6ZYd4rH5pP58v-12" target="HmodYSN6ZYd4rH5pP58v-14" edge="1">
          <mxGeometry relative="1" as="geometry" />
        </mxCell>
        <mxCell id="HmodYSN6ZYd4rH5pP58v-12" value="Вывод буквы" style="shape=parallelogram;perimeter=parallelogramPerimeter;whiteSpace=wrap;html=1;" parent="1" vertex="1">
          <mxGeometry x="315" y="380" width="125" height="30" as="geometry" />
        </mxCell>
        <mxCell id="HmodYSN6ZYd4rH5pP58v-14" value="Конец" style="ellipse;whiteSpace=wrap;html=1;" parent="1" vertex="1">
          <mxGeometry x="312.5" y="440" width="125" height="40" as="geometry" />
        </mxCell>
      </root>
    </mxGraphModel>
  </diagram>
  <diagram id="r-aKXd8KgGd0nthWWm3U" name="les_1_task_2">
    <mxGraphModel dx="1126" dy="670" grid="1" gridSize="10" guides="1" tooltips="1" connect="1" arrows="1" fold="1" page="1" pageScale="1" pageWidth="827" pageHeight="1169" math="0" shadow="0">
      <root>
        <mxCell id="EwRvIrrPg_WYvVoX-Hgj-0" />
        <mxCell id="EwRvIrrPg_WYvVoX-Hgj-1" parent="EwRvIrrPg_WYvVoX-Hgj-0" />
        <mxCell id="iD-PSrUsQdL1igyhKlZR-2" style="edgeStyle=orthogonalEdgeStyle;rounded=0;orthogonalLoop=1;jettySize=auto;html=1;exitX=0.5;exitY=1;exitDx=0;exitDy=0;entryX=0.5;entryY=0;entryDx=0;entryDy=0;" edge="1" parent="EwRvIrrPg_WYvVoX-Hgj-1" source="iD-PSrUsQdL1igyhKlZR-0" target="iD-PSrUsQdL1igyhKlZR-1">
          <mxGeometry relative="1" as="geometry" />
        </mxCell>
        <mxCell id="iD-PSrUsQdL1igyhKlZR-0" value="Начало" style="ellipse;whiteSpace=wrap;html=1;" vertex="1" parent="EwRvIrrPg_WYvVoX-Hgj-1">
          <mxGeometry x="310" y="30" width="100" height="30" as="geometry" />
        </mxCell>
        <mxCell id="iD-PSrUsQdL1igyhKlZR-4" style="edgeStyle=orthogonalEdgeStyle;rounded=0;orthogonalLoop=1;jettySize=auto;html=1;exitX=0.5;exitY=1;exitDx=0;exitDy=0;entryX=0.541;entryY=0.008;entryDx=0;entryDy=0;entryPerimeter=0;" edge="1" parent="EwRvIrrPg_WYvVoX-Hgj-1" source="iD-PSrUsQdL1igyhKlZR-1" target="iD-PSrUsQdL1igyhKlZR-3">
          <mxGeometry relative="1" as="geometry" />
        </mxCell>
        <mxCell id="iD-PSrUsQdL1igyhKlZR-1" value="Введите длину &lt;br&gt;трёх отрезков" style="shape=parallelogram;perimeter=parallelogramPerimeter;whiteSpace=wrap;html=1;" vertex="1" parent="EwRvIrrPg_WYvVoX-Hgj-1">
          <mxGeometry x="294" y="80" width="126" height="50" as="geometry" />
        </mxCell>
        <mxCell id="iD-PSrUsQdL1igyhKlZR-7" style="edgeStyle=orthogonalEdgeStyle;rounded=0;orthogonalLoop=1;jettySize=auto;html=1;exitX=0.5;exitY=1;exitDx=0;exitDy=0;entryX=0.5;entryY=0;entryDx=0;entryDy=0;" edge="1" parent="EwRvIrrPg_WYvVoX-Hgj-1" source="iD-PSrUsQdL1igyhKlZR-3" target="iD-PSrUsQdL1igyhKlZR-5">
          <mxGeometry relative="1" as="geometry" />
        </mxCell>
        <mxCell id="iD-PSrUsQdL1igyhKlZR-3" value="Ввод трёх &lt;br&gt;отрезков и присвоение переменным a,b,c" style="shape=parallelogram;perimeter=parallelogramPerimeter;whiteSpace=wrap;html=1;" vertex="1" parent="EwRvIrrPg_WYvVoX-Hgj-1">
          <mxGeometry x="270" y="160" width="190" height="70" as="geometry" />
        </mxCell>
        <mxCell id="iD-PSrUsQdL1igyhKlZR-9" style="edgeStyle=orthogonalEdgeStyle;rounded=0;orthogonalLoop=1;jettySize=auto;html=1;exitX=0;exitY=0.5;exitDx=0;exitDy=0;entryX=0.5;entryY=0;entryDx=0;entryDy=0;" edge="1" parent="EwRvIrrPg_WYvVoX-Hgj-1" source="iD-PSrUsQdL1igyhKlZR-5" target="iD-PSrUsQdL1igyhKlZR-8">
          <mxGeometry relative="1" as="geometry" />
        </mxCell>
        <mxCell id="iD-PSrUsQdL1igyhKlZR-12" style="edgeStyle=orthogonalEdgeStyle;rounded=0;orthogonalLoop=1;jettySize=auto;html=1;exitX=1;exitY=0.5;exitDx=0;exitDy=0;entryX=0.5;entryY=0;entryDx=0;entryDy=0;" edge="1" parent="EwRvIrrPg_WYvVoX-Hgj-1" source="iD-PSrUsQdL1igyhKlZR-5" target="iD-PSrUsQdL1igyhKlZR-14">
          <mxGeometry relative="1" as="geometry">
            <mxPoint x="617.5" y="360" as="targetPoint" />
          </mxGeometry>
        </mxCell>
        <mxCell id="iD-PSrUsQdL1igyhKlZR-13" value="Да" style="text;html=1;align=center;verticalAlign=middle;resizable=0;points=[];labelBackgroundColor=#ffffff;" vertex="1" connectable="0" parent="iD-PSrUsQdL1igyhKlZR-12">
          <mxGeometry x="-0.2527" y="8" relative="1" as="geometry">
            <mxPoint x="-13" y="-7" as="offset" />
          </mxGeometry>
        </mxCell>
        <mxCell id="iD-PSrUsQdL1igyhKlZR-5" value="Треугольник &lt;br&gt;существует:&lt;br&gt;a + b &amp;lt;= c &lt;br&gt;или&amp;nbsp; a + c &amp;lt;= b &lt;br&gt;или b + c &amp;lt;= a" style="rhombus;whiteSpace=wrap;html=1;" vertex="1" parent="EwRvIrrPg_WYvVoX-Hgj-1">
          <mxGeometry x="270" y="240" width="150" height="150" as="geometry" />
        </mxCell>
        <mxCell id="iD-PSrUsQdL1igyhKlZR-25" style="edgeStyle=orthogonalEdgeStyle;rounded=0;orthogonalLoop=1;jettySize=auto;html=1;exitX=0.5;exitY=1;exitDx=0;exitDy=0;" edge="1" parent="EwRvIrrPg_WYvVoX-Hgj-1" source="iD-PSrUsQdL1igyhKlZR-8" target="iD-PSrUsQdL1igyhKlZR-24">
          <mxGeometry relative="1" as="geometry">
            <Array as="points">
              <mxPoint x="130" y="420" />
              <mxPoint x="130" y="550" />
              <mxPoint x="373" y="550" />
            </Array>
          </mxGeometry>
        </mxCell>
        <mxCell id="iD-PSrUsQdL1igyhKlZR-8" value="Вывод: &lt;br&gt;треугольник не существует" style="shape=parallelogram;perimeter=parallelogramPerimeter;whiteSpace=wrap;html=1;" vertex="1" parent="EwRvIrrPg_WYvVoX-Hgj-1">
          <mxGeometry x="80" y="360" width="200" height="60" as="geometry" />
        </mxCell>
        <mxCell id="iD-PSrUsQdL1igyhKlZR-10" value="Нет" style="text;html=1;align=center;verticalAlign=middle;resizable=0;points=[];autosize=1;" vertex="1" parent="EwRvIrrPg_WYvVoX-Hgj-1">
          <mxGeometry x="200" y="290" width="40" height="20" as="geometry" />
        </mxCell>
        <mxCell id="iD-PSrUsQdL1igyhKlZR-17" style="edgeStyle=orthogonalEdgeStyle;rounded=0;orthogonalLoop=1;jettySize=auto;html=1;exitX=1;exitY=0.5;exitDx=0;exitDy=0;entryX=0.5;entryY=0;entryDx=0;entryDy=0;" edge="1" parent="EwRvIrrPg_WYvVoX-Hgj-1" source="iD-PSrUsQdL1igyhKlZR-14" target="iD-PSrUsQdL1igyhKlZR-16">
          <mxGeometry relative="1" as="geometry" />
        </mxCell>
        <mxCell id="iD-PSrUsQdL1igyhKlZR-18" value="Да" style="text;html=1;align=center;verticalAlign=middle;resizable=0;points=[];labelBackgroundColor=#ffffff;" vertex="1" connectable="0" parent="iD-PSrUsQdL1igyhKlZR-17">
          <mxGeometry x="-0.4821" y="9" relative="1" as="geometry">
            <mxPoint as="offset" />
          </mxGeometry>
        </mxCell>
        <mxCell id="iD-PSrUsQdL1igyhKlZR-20" style="edgeStyle=orthogonalEdgeStyle;rounded=0;orthogonalLoop=1;jettySize=auto;html=1;exitX=0;exitY=0.5;exitDx=0;exitDy=0;entryX=0.5;entryY=0;entryDx=0;entryDy=0;" edge="1" parent="EwRvIrrPg_WYvVoX-Hgj-1" source="iD-PSrUsQdL1igyhKlZR-14" target="iD-PSrUsQdL1igyhKlZR-19">
          <mxGeometry relative="1" as="geometry" />
        </mxCell>
        <mxCell id="iD-PSrUsQdL1igyhKlZR-21" value="Нет" style="text;html=1;align=center;verticalAlign=middle;resizable=0;points=[];labelBackgroundColor=#ffffff;" vertex="1" connectable="0" parent="iD-PSrUsQdL1igyhKlZR-20">
          <mxGeometry x="-0.1905" y="-11" relative="1" as="geometry">
            <mxPoint as="offset" />
          </mxGeometry>
        </mxCell>
        <mxCell id="iD-PSrUsQdL1igyhKlZR-14" value="a != b &lt;br&gt;и a != c &lt;br&gt;и b != c" style="rhombus;whiteSpace=wrap;html=1;" vertex="1" parent="EwRvIrrPg_WYvVoX-Hgj-1">
          <mxGeometry x="450" y="340" width="80" height="100" as="geometry" />
        </mxCell>
        <mxCell id="iD-PSrUsQdL1igyhKlZR-28" style="edgeStyle=orthogonalEdgeStyle;rounded=0;orthogonalLoop=1;jettySize=auto;html=1;exitX=0.5;exitY=1;exitDx=0;exitDy=0;entryX=0.72;entryY=0.85;entryDx=0;entryDy=0;entryPerimeter=0;" edge="1" parent="EwRvIrrPg_WYvVoX-Hgj-1" source="iD-PSrUsQdL1igyhKlZR-16" target="iD-PSrUsQdL1igyhKlZR-24">
          <mxGeometry relative="1" as="geometry">
            <Array as="points">
              <mxPoint x="630" y="550" />
              <mxPoint x="383" y="550" />
              <mxPoint x="383" y="604" />
            </Array>
          </mxGeometry>
        </mxCell>
        <mxCell id="iD-PSrUsQdL1igyhKlZR-16" value="Вывод: треугольник &quot;Разносторонний&quot;" style="shape=parallelogram;perimeter=parallelogramPerimeter;whiteSpace=wrap;html=1;" vertex="1" parent="EwRvIrrPg_WYvVoX-Hgj-1">
          <mxGeometry x="550" y="420" width="160" height="60" as="geometry" />
        </mxCell>
        <mxCell id="iD-PSrUsQdL1igyhKlZR-29" style="edgeStyle=orthogonalEdgeStyle;rounded=0;orthogonalLoop=1;jettySize=auto;html=1;exitX=1;exitY=0.5;exitDx=0;exitDy=0;entryX=0.604;entryY=-0.027;entryDx=0;entryDy=0;entryPerimeter=0;" edge="1" parent="EwRvIrrPg_WYvVoX-Hgj-1" source="iD-PSrUsQdL1igyhKlZR-19" target="iD-PSrUsQdL1igyhKlZR-23">
          <mxGeometry relative="1" as="geometry" />
        </mxCell>
        <mxCell id="iD-PSrUsQdL1igyhKlZR-30" value="Да" style="text;html=1;align=center;verticalAlign=middle;resizable=0;points=[];labelBackgroundColor=#ffffff;" vertex="1" connectable="0" parent="iD-PSrUsQdL1igyhKlZR-29">
          <mxGeometry x="-0.4784" y="10" relative="1" as="geometry">
            <mxPoint as="offset" />
          </mxGeometry>
        </mxCell>
        <mxCell id="iD-PSrUsQdL1igyhKlZR-31" style="edgeStyle=orthogonalEdgeStyle;rounded=0;orthogonalLoop=1;jettySize=auto;html=1;exitX=0;exitY=0.5;exitDx=0;exitDy=0;entryX=0.5;entryY=0;entryDx=0;entryDy=0;" edge="1" parent="EwRvIrrPg_WYvVoX-Hgj-1" source="iD-PSrUsQdL1igyhKlZR-19" target="iD-PSrUsQdL1igyhKlZR-22">
          <mxGeometry relative="1" as="geometry" />
        </mxCell>
        <mxCell id="iD-PSrUsQdL1igyhKlZR-32" value="Нет" style="text;html=1;align=center;verticalAlign=middle;resizable=0;points=[];labelBackgroundColor=#ffffff;" vertex="1" connectable="0" parent="iD-PSrUsQdL1igyhKlZR-31">
          <mxGeometry x="-0.1175" y="-12" relative="1" as="geometry">
            <mxPoint as="offset" />
          </mxGeometry>
        </mxCell>
        <mxCell id="iD-PSrUsQdL1igyhKlZR-19" value="a == b == c" style="rhombus;whiteSpace=wrap;html=1;" vertex="1" parent="EwRvIrrPg_WYvVoX-Hgj-1">
          <mxGeometry x="340" y="410" width="80" height="80" as="geometry" />
        </mxCell>
        <mxCell id="iD-PSrUsQdL1igyhKlZR-26" style="edgeStyle=orthogonalEdgeStyle;rounded=0;orthogonalLoop=1;jettySize=auto;html=1;exitX=0.5;exitY=1;exitDx=0;exitDy=0;" edge="1" parent="EwRvIrrPg_WYvVoX-Hgj-1" source="iD-PSrUsQdL1igyhKlZR-22" target="iD-PSrUsQdL1igyhKlZR-24">
          <mxGeometry relative="1" as="geometry">
            <Array as="points">
              <mxPoint x="265" y="550" />
              <mxPoint x="383" y="550" />
            </Array>
          </mxGeometry>
        </mxCell>
        <mxCell id="iD-PSrUsQdL1igyhKlZR-22" value="Вывод&lt;br&gt;треугольник&lt;br&gt;&quot;Равнобедренный&quot;" style="shape=parallelogram;perimeter=parallelogramPerimeter;whiteSpace=wrap;html=1;" vertex="1" parent="EwRvIrrPg_WYvVoX-Hgj-1">
          <mxGeometry x="190" y="480" width="150" height="50" as="geometry" />
        </mxCell>
        <mxCell id="iD-PSrUsQdL1igyhKlZR-33" style="edgeStyle=orthogonalEdgeStyle;rounded=0;orthogonalLoop=1;jettySize=auto;html=1;exitX=0.5;exitY=1;exitDx=0;exitDy=0;" edge="1" parent="EwRvIrrPg_WYvVoX-Hgj-1" source="iD-PSrUsQdL1igyhKlZR-23">
          <mxGeometry relative="1" as="geometry">
            <mxPoint x="380" y="570" as="targetPoint" />
          </mxGeometry>
        </mxCell>
        <mxCell id="iD-PSrUsQdL1igyhKlZR-23" value="Вывод: треугольник&lt;br&gt;&quot;Равносторонний&quot;" style="shape=parallelogram;perimeter=parallelogramPerimeter;whiteSpace=wrap;html=1;" vertex="1" parent="EwRvIrrPg_WYvVoX-Hgj-1">
          <mxGeometry x="390" y="470" width="150" height="50" as="geometry" />
        </mxCell>
        <mxCell id="iD-PSrUsQdL1igyhKlZR-24" value="Конец" style="ellipse;whiteSpace=wrap;html=1;" vertex="1" parent="EwRvIrrPg_WYvVoX-Hgj-1">
          <mxGeometry x="320" y="570" width="125" height="40" as="geometry" />
        </mxCell>
      </root>
    </mxGraphModel>
  </diagram>
  <diagram id="7OjwgNZGRFpuOCAKseIf" name="les_1_task_3">
    <mxGraphModel dx="782" dy="469" grid="1" gridSize="10" guides="1" tooltips="1" connect="1" arrows="1" fold="1" page="1" pageScale="1" pageWidth="827" pageHeight="1169" math="0" shadow="0">
      <root>
        <mxCell id="R5uGvQIfVBA9US_UBK0v-0" />
        <mxCell id="R5uGvQIfVBA9US_UBK0v-1" parent="R5uGvQIfVBA9US_UBK0v-0" />
      </root>
    </mxGraphModel>
  </diagram>
  <diagram id="tkP0l0aChunvSilYbzRy" name="les_1_task_4">
    <mxGraphModel dx="782" dy="469" grid="1" gridSize="10" guides="1" tooltips="1" connect="1" arrows="1" fold="1" page="1" pageScale="1" pageWidth="827" pageHeight="1169" math="0" shadow="0">
      <root>
        <mxCell id="jGz1bDzyo2_EMPt0pyZP-0" />
        <mxCell id="jGz1bDzyo2_EMPt0pyZP-1" parent="jGz1bDzyo2_EMPt0pyZP-0" />
      </root>
    </mxGraphModel>
  </diagram>
</mxfile>
